<?xml version="1.0" encoding="UTF-8" standalone="yes"?>
<svg version="1.1" id="Layer_1" xmlns:x="&amp;ns_extend;" xmlns:i="&amp;ns_ai;" xmlns:graph="&amp;ns_graphs;" xmlns="http://www.w3.org/2000/svg" xmlns:xlink="http://www.w3.org/1999/xlink" x="0px" y="0px" viewBox="0 0 315 315" style="enable-background:new 0 0 315 315;" xml:space="preserve">
      <style type="text/css">.st0{fill:#135086;}	.st1{fill:#488ECB;}	.st2{fill:#94C7EB;}	.st3{fill:#274956;}</style>
    <metadata>
              <sfw>
                      <slices/>
            <sliceSourceBounds bottomLeftOrigin="true" height="315" width="315" x="-57.5" y="-257.5"/>
                  </sfw>
          </metadata>
    <g id="color_index_3" fill="#135086">
              <path d="M113.3489,199.4072c5.3322,34.6906,20.3864,79.2533,20.3864,79.2533l0.3671,1.701&#x9;&#x9;c7.5804,1.435,15.3997,2.1949,23.3975,2.1949c29.696,0,56.9688-10.3575,78.4188-27.6479&#x9;&#x9;c-11.069-2.2567-23.996-6.61-36.1244-11.3158c-20.5653-7.9794-40.444-17.6265-59.5478-28.6561L113.3489,199.4072z"/>
        <path d="M172.4585,216.3215c32.7451,12.6345,78.8905,21.7474,78.8905,21.7474l1.6582,0.5279&#x9;&#x9;c5.0163-5.8616,9.5658-12.2664,13.545-19.204c14.7749-25.7597,19.3596-54.5705,15.0334-81.7799&#x9;&#x9;c-7.4648,8.479-17.6727,17.5265-27.7891,25.7059c-17.1537,13.8693-35.4123,26.3131-54.4846,37.397L172.4585,216.3215z"/>
          </g>
    <g id="color_index_2" fill="#488ecb">
              <path d="M215.8723,174.7821c27.375-21.9654,58.4373-57.2866,58.4373-57.2866l1.2895-1.1685&#x9;&#x9;c-2.5481-7.2822-5.8002-14.4335-9.7997-21.3595c-14.8501-25.7164-37.4578-44.1547-63.1575-54.0838&#x9;&#x9;c3.581,10.7141,6.2755,24.0857,8.2654,36.942c3.3741,21.7996,4.9606,43.8385,4.9624,65.8977L215.8723,174.7821z"/>
        <path d="M201.6574,115.5782c-5.3508-34.6878-20.4287-79.2424-20.4287-79.2424l-0.368-1.7008&#x9;&#x9;c-7.5812-1.431-15.4009-2.1866-23.3987-2.1824c-29.696,0.0159-56.9632,10.3879-78.404,27.6898&#x9;&#x9;c11.0702,2.2508,23.9995,6.5972,36.1305,11.2965c20.5696,7.9684,40.4534,17.6049,59.5631,28.6242L201.6574,115.5782z"/>
          </g>
    <g id="color_index_1" fill="#94c7eb">
              <path d="M143.2903,98.3153c-32.7071-12.7324-78.825-21.9833-78.825-21.9833l-1.6566-0.5329&#x9;&#x9;c-5.0339,5.8466-9.6025,12.2377-13.6024,19.1634c-14.8519,25.7154-19.5228,54.5123-15.278,81.7345&#x9;&#x9;c7.4901-8.4566,17.725-17.4735,27.8658-25.6227c17.1951-13.8179,35.4909-26.2071,54.5963-37.2338L143.2903,98.3153z"/>
        <path d="M99.1162,140.2176c-27.3701,21.9715-58.4246,57.2995-58.4246,57.2995l-1.2892,1.1688&#x9;&#x9;c2.5497,7.2816,5.8034,14.4322,9.8044,21.3573c14.8558,25.7131,37.4675,44.1465,63.1695,54.0698&#x9;&#x9;c-3.5834-10.7133-6.2809-24.0843-8.2736-36.9402c-3.3789-21.7988-4.9703-43.8374-4.977-65.8965L99.1162,140.2176z"/>
          </g>
    <g id="color_index_0" fill="#274956">
              <path d="M157.5,307.5186c-82.7204,0-150.0186-67.2979-150.0186-150.0186S74.7796,7.4815,157.5,7.4815&#x9;&#x9;c82.7209,0,150.0186,67.2979,150.0186,150.0185S240.2209,307.5186,157.5,307.5186z M157.5,21.5642&#x9;&#x9;c-74.9553,0-135.9359,60.9802-135.9359,135.9358S82.5447,293.4358,157.5,293.4358c74.9549,0,135.9359-60.9802,135.9359-135.9358&#x9;&#x9;S232.4549,21.5642,157.5,21.5642z"/>
        <polygon points="315,61.808 300.0371,61.808 300.0371,14.9629 253.1913,14.9629 253.1913,0 315,0 &#x9;"/>
        <polygon points="14.9629,61.808 0,61.808 0,0 61.8087,0 61.8087,14.9629 14.9629,14.9629 &#x9;"/>
        <polygon points="61.8087,315 0,315 0,253.1911 14.9629,253.1911 14.9629,300.0371 61.8087,300.0371 &#x9;"/>
        <polygon points="315,315 253.1913,315 253.1913,300.0371 300.0371,300.0371 300.0371,253.1911 315,253.1911 &#x9;"/>
        <polygon points="200.5129,182.3336 200.5129,132.6664 157.5,107.8329 114.4871,132.6664 114.4871,182.3336 &#x9;&#x9;157.5,207.1671 &#x9;"/>
          </g>
  </svg>